<svg xmlns="http://www.w3.org/2000/svg" width="150.47" height="45.281" viewBox="0 0 150.47 45.281">
  <metadata><?xpacket begin="﻿" id="W5M0MpCehiHzreSzNTczkc9d"?>
<x:xmpmeta xmlns:x="adobe:ns:meta/" x:xmptk="Adobe XMP Core 5.6-c140 79.160451, 2017/05/06-01:08:21        ">
   <rdf:RDF xmlns:rdf="http://www.w3.org/1999/02/22-rdf-syntax-ns#">
      <rdf:Description rdf:about=""/>
   </rdf:RDF>
</x:xmpmeta>
                                                                                                    
                                                                                                    
                                                                                                    
                                                                                                    
                                                                                                    
                                                                                                    
                                                                                                    
                                                                                                    
                                                                                                    
                                                                                                    
                                                                                                    
                                                                                                    
                                                                                                    
                                                                                                    
                                                                                                    
                                                                                                    
                                                                                                    
                                                                                                    
                                                                                                    
                                                                                                    
                           
<?xpacket end="w"?></metadata>
<defs>
    <style>
      .cls-1 {
        fill: #363636;
        fill-rule: evenodd;
      }
    </style>
  </defs>
  <path id="project." class="cls-1" d="M1125,224h52v4h-52v-4Zm71,0h59v4h-59v-4Zm-69.21-32.072a10.725,10.725,0,0,0-3.88.648,11.259,11.259,0,0,0-3.22,1.944l-0.62-2.208h-4.8v35.616h5.95V214.872a9.713,9.713,0,0,0,2.9,1.464,12.84,12.84,0,0,0,3.67.456,10.086,10.086,0,0,0,5.86-1.68,10.542,10.542,0,0,0,3.7-4.512,16.321,16.321,0,0,0,0-12.48,10.542,10.542,0,0,0-3.7-4.512,10.086,10.086,0,0,0-5.86-1.68h0Zm-0.91,19.968a5.185,5.185,0,0,1-4.46-2.016,10.97,10.97,0,0,1,0-11.04,5.185,5.185,0,0,1,4.46-2.016,4.806,4.806,0,0,1,4.13,2.064,10.793,10.793,0,0,1,0,10.944,4.806,4.806,0,0,1-4.13,2.064h0Zm15.84,4.416h5.95V199.944a4.333,4.333,0,0,1,1.78-1.7,5.511,5.511,0,0,1,2.74-.7,8.148,8.148,0,0,1,2.06.24l0.43-5.856a5.36,5.36,0,0,0-1.05-.1,7.09,7.09,0,0,0-3.48.912,10.014,10.014,0,0,0-2.72,2.112l-0.14-2.544h-5.57v24Zm26.31,0.48a12.467,12.467,0,0,0,6.57-1.68,11.309,11.309,0,0,0,4.27-4.512,13.233,13.233,0,0,0,1.49-6.24,13.52,13.52,0,0,0-1.49-6.288,11.229,11.229,0,0,0-4.27-4.56,13.706,13.706,0,0,0-13.15,0,11.229,11.229,0,0,0-4.27,4.56,13.52,13.52,0,0,0-1.49,6.288,13.233,13.233,0,0,0,1.49,6.24,11.309,11.309,0,0,0,4.27,4.512,12.479,12.479,0,0,0,6.58,1.68h0Zm0-4.9a5.561,5.561,0,0,1-4.59-2.064,8.507,8.507,0,0,1-1.65-5.472,8.689,8.689,0,0,1,1.65-5.544,6.078,6.078,0,0,1,9.17,0,8.692,8.692,0,0,1,1.66,5.544,8.51,8.51,0,0,1-1.66,5.472,5.542,5.542,0,0,1-4.58,2.064h0Zm16.46-23.232h5.95v-5.952h-5.95v5.952Zm-2.35,39.264h1.87a7.348,7.348,0,0,0,4.87-1.344q1.56-1.344,1.56-4.944V192.312h-5.95v26.88a5.424,5.424,0,0,1-.6,3.024,2.677,2.677,0,0,1-2.28.816Zm25.44-11.136a18.488,18.488,0,0,0,4.44-.5,15.451,15.451,0,0,0,3.57-1.32l-0.29-5.04a13.8,13.8,0,0,1-7.2,1.968,7.671,7.671,0,0,1-4.84-1.56,6.992,6.992,0,0,1-2.5-4.728h15.5a15.789,15.789,0,0,0,.39-3.264,11.567,11.567,0,0,0-1.18-5.28,8.947,8.947,0,0,0-3.5-3.744,10.9,10.9,0,0,0-5.69-1.392,11.6,11.6,0,0,0-6.29,1.656,10.911,10.911,0,0,0-4.03,4.44,13.517,13.517,0,0,0-1.39,6.144,13.809,13.809,0,0,0,1.46,6.36,11.025,11.025,0,0,0,4.42,4.56,14.031,14.031,0,0,0,7.13,1.7h0Zm-6.68-15.216a6.651,6.651,0,0,1,1.83-3.456,4.89,4.89,0,0,1,3.55-1.3,3.769,3.769,0,0,1,3.26,1.44,5.419,5.419,0,0,1,1.06,3.312h-9.7Zm30.96,15.216a17.2,17.2,0,0,0,3.68-.384,12.358,12.358,0,0,0,3.04-1.056l-0.52-5.04a10.867,10.867,0,0,1-5.48,1.584,6.774,6.774,0,0,1-5.23-2.136,8.568,8.568,0,0,1-.05-10.872,6.926,6.926,0,0,1,5.33-2.064,11.546,11.546,0,0,1,5.38,1.344l0.48-4.8a12.945,12.945,0,0,0-6.43-1.536,13.836,13.836,0,0,0-7.01,1.656,10.666,10.666,0,0,0-4.32,4.512,13.925,13.925,0,0,0-1.44,6.36,13.671,13.671,0,0,0,1.44,6.288,10.749,10.749,0,0,0,4.29,4.488,13.441,13.441,0,0,0,6.84,1.656h0Zm18.53,0h4.27l0.53-4.9h-1.63a9.777,9.777,0,0,1-2.52-.216,1.318,1.318,0,0,1-.91-0.96,10.655,10.655,0,0,1-.22-2.664V197.208h5.28v-4.9h-5.28v-5.9l-5.95.624v5.28h-2.88l-0.53,4.9h3.41v13.3a6.467,6.467,0,0,0,1.63,4.44,6.071,6.071,0,0,0,4.8,1.848h0Zm8.11-.48h6.24v-6.528h-6.24v6.528Z" transform="translate(-1114.28 -182.719)"/>
</svg>
